<svg xmlns="http://www.w3.org/2000/svg" version="1.1" xmlns:xlink="http://www.w3.org/1999/xlink" xmlns:svgjs="http://svgjs.dev/svgjs" width="1920" height="1080" preserveAspectRatio="none" viewBox="0 0 1920 1080"><g mask="url(&quot;#SvgjsMask1055&quot;)" fill="none"><path d="M1247.68 1057.55 a328.81 328.81 0 1 0 657.62 0 a328.81 328.81 0 1 0 -657.62 0z" fill="rgba(228, 79, 26, 0.56)" class="triangle-float1"></path><path d="M456.45108877303153 1030.3994050997676L605.4600602025818 957.7228737448964 532.7835288477107 808.7139023153462 383.77455741816044 881.3904336702174z" fill="rgba(228, 79, 26, 0.56)" class="triangle-float3"></path><path d="M597.6304775413081 584.8435693299502L901.5436318127123 627.5557777082901 944.2558401910521 323.64262343688586 640.3426859196479 280.93041505854603z" fill="rgba(228, 79, 26, 0.56)" class="triangle-float3"></path><path d="M1610.268,868.728C1680.643,871.576,1756.316,858.235,1794.748,799.212C1836.183,735.577,1833.716,651.343,1793.93,586.664C1755.86,524.776,1682.905,497.491,1610.268,499.308C1541.006,501.041,1475.745,535.039,1441.863,595.473C1408.675,654.67,1414.346,727.485,1449.952,785.26C1483.831,840.232,1545.748,866.117,1610.268,868.728" fill="rgba(228, 79, 26, 0.56)" class="triangle-float2"></path><path d="M709.2286443983406 187.7009891982761L487.65452909974215 119.72801386993194 529.7773987869219 317.900534897875z" fill="rgba(228, 79, 26, 0.56)" class="triangle-float1"></path><path d="M1006.6458253898652 939.863077670592L732.0269274080522 845.3042079642763 912.0869556835495 1214.481975652405z" fill="rgba(228, 79, 26, 0.56)" class="triangle-float2"></path><path d="M110.648,313.134C163.028,312.923,221.243,305.275,247.212,259.786C273.042,214.541,247.802,161.882,223.22,115.947C196.528,66.069,167.074,8.633,110.648,4.59C49.433,0.204,-4.648,43.536,-33.821,97.531C-61.583,148.914,-60.343,212.375,-27.833,260.893C1.602,304.821,57.77,313.347,110.648,313.134" fill="rgba(228, 79, 26, 0.56)" class="triangle-float1"></path><path d="M120.268,1138.453C179.886,1136.847,230.817,1099.096,259.962,1047.062C288.403,996.285,294.043,933.215,262.692,884.181C233.268,838.161,174.891,828.496,120.268,828.577C65.832,828.658,9.106,839.535,-21.426,884.602C-55.643,935.108,-62.835,1001.688,-33.102,1054.957C-2.695,1109.432,57.904,1140.133,120.268,1138.453" fill="rgba(228, 79, 26, 0.56)" class="triangle-float2"></path><path d="M1011.79 88.76 a185.34 185.34 0 1 0 370.68 0 a185.34 185.34 0 1 0 -370.68 0z" fill="rgba(228, 79, 26, 0.56)" class="triangle-float3"></path><path d="M1159.022,829.723C1225.307,829.058,1287.034,796.307,1321.128,739.459C1356.241,680.912,1358.927,609.19,1327.696,548.483C1293.468,481.951,1233.842,424.41,1159.022,424.356C1084.132,424.301,1024.843,481.987,989.922,548.237C957.515,609.719,955.396,683.191,991.186,742.767C1025.962,800.656,1091.493,830.4,1159.022,829.723" fill="rgba(228, 79, 26, 0.56)" class="triangle-float1"></path><path d="M641.243,325.161C713.258,324.501,777.483,285.264,815.75,224.254C856.858,158.714,880.31,74.766,839.536,9.018C800.176,-54.45,715.918,-58.146,641.243,-57.136C568.997,-56.159,490.662,-46.797,452.024,14.257C411.245,78.692,421.46,162.367,461.104,227.506C499.163,290.041,568.04,325.832,641.243,325.161" fill="rgba(228, 79, 26, 0.56)" class="triangle-float2"></path><path d="M274.155,288.574C340.168,287.409,402.95,253.003,433.07,194.251C461.035,139.701,439.241,77.96,409.649,24.274C378.625,-32.01,338.337,-90.726,274.155,-94.053C205.615,-97.606,146.118,-50.67,111.932,8.842C77.887,68.109,70.931,140.911,105.219,200.037C139.404,258.984,206.024,289.776,274.155,288.574" fill="rgba(228, 79, 26, 0.56)" class="triangle-float1"></path><path d="M1496.57 188.79 a245.39 245.39 0 1 0 490.78 0 a245.39 245.39 0 1 0 -490.78 0z" fill="rgba(228, 79, 26, 0.56)" class="triangle-float3"></path><path d="M382.81,630.433C478.058,632.688,577.463,599.762,623.979,516.614C669.668,434.944,641.473,336.03,591.92,256.646C545.696,182.596,469.989,125.804,382.81,130.262C301.464,134.422,249.213,206.195,207.728,276.291C165.124,348.276,123.573,430.658,160.644,505.643C200.99,587.251,291.8,628.278,382.81,630.433" fill="rgba(228, 79, 26, 0.56)" class="triangle-float2"></path><path d="M549.96 1010.84 a331.45 331.45 0 1 0 662.9 0 a331.45 331.45 0 1 0 -662.9 0z" fill="rgba(228, 79, 26, 0.56)" class="triangle-float1"></path><path d="M719.635,724.663C824.732,727.106,919.567,657.438,965.376,562.819C1006.325,478.238,975.555,381.495,923.73,303.106C877.861,233.726,802.721,194.891,719.635,191.116C628.266,186.965,529.348,205.54,480.677,282.978C429.511,364.387,447.166,467.265,492.919,551.835C541.383,641.414,617.814,722.296,719.635,724.663" fill="rgba(228, 79, 26, 0.56)" class="triangle-float2"></path><path d="M1934.1373263413207 884.7563309238892L1692.9248711967775 876.3330063792481 1684.5015466521365 1117.5454615237911 1925.7140017966797 1125.968786068432z" fill="rgba(228, 79, 26, 0.56)" class="triangle-float3"></path><path d="M1402.3925751958327 659.8635918419203L1315.4084218187752 885.82117454752 1525.0013567350125 856.3648085266678z" fill="rgba(228, 79, 26, 0.56)" class="triangle-float1"></path><path d="M1487.179262149423 913.1213122115173L1735.6837163909386 855.7495383741333 1678.3119425535544 607.2450841326178 1429.807488312039 664.6168579700018z" fill="rgba(228, 79, 26, 0.56)" class="triangle-float1"></path><path d="M141.2,474.271C236.609,472.546,332.901,439.223,381.114,356.874C429.767,273.774,414.777,171.595,367.537,87.684C319.262,1.935,239.569,-71.914,141.2,-69.277C46.07,-66.727,-16.875,17.211,-65.052,99.279C-114.076,182.79,-160.896,280.981,-114.227,365.83C-66.449,452.696,42.077,476.063,141.2,474.271" fill="rgba(228, 79, 26, 0.56)" class="triangle-float1"></path></g><defs><mask id="SvgjsMask1055"><rect width="1920" height="1080" fill="#ffffff"></rect></mask><style>
                @keyframes float1 {
                    0%{transform: translate(0, 0)}
                    50%{transform: translate(-100px, 0)}
                    100%{transform: translate(0, 0)}
                }

                .triangle-float1 {
                    animation: float1 5s infinite;
                }

                @keyframes float2 {
                    0%{transform: translate(0, 0)}
                    50%{transform: translate(-50px, -50px)}
                    100%{transform: translate(0, 0)}
                }

                .triangle-float2 {
                    animation: float2 4s infinite;
                }

                @keyframes float3 {
                    0%{transform: translate(0, 0)}
                    50%{transform: translate(0, -100px)}
                    100%{transform: translate(0, 0)}
                }

                .triangle-float3 {
                    animation: float3 6s infinite;
                }
            </style></defs></svg>
